PathFileType	4	(X/Y/Z)	39_2_25_p0_0-723.trc
DataRate	CameraRate	NumFrames	NumMarkers	Units	OrigDataRate	OrigDataStartFrame	OrigNumFrames
58.0	58.0	5	27	m	58.0	543	724
Frame#	Time	RHip			RKnee			RAnkle			RBigToe			RSmallToe			RHeel			LHip			LKnee			LAnkle			LBigToe			LSmallToe			LHeel			Neck			Head			Nose			RShoulder			RElbow			RWrist			RThumb			RIndex			RPinky			LShoulder			LElbow			LWrist			LThumb			LIndex			LPinky			
		X1	Y1	Z1	X2	Y2	Z2	X3	Y3	Z3	X4	Y4	Z4	X5	Y5	Z5	X6	Y6	Z6	X7	Y7	Z7	X8	Y8	Z8	X9	Y9	Z9	X10	Y10	Z10	X11	Y11	Z11	X12	Y12	Z12	X13	Y13	Z13	X14	Y14	Z14	X15	Y15	Z15	X16	Y16	Z16	X17	Y17	Z17	X18	Y18	Z18	X19	Y19	Z19	X20	Y20	Z20	X21	Y21	Z21	X22	Y22	Z22	X23	Y23	Z23	X24	Y24	Z24	X25	Y25	Z25	X26	Y26	Z26	X27	Y27	Z27	
543	9.362068965517242	0.3284623265451696	0.6357237493966416	0.5819926559678958	0.25125462888868527	0.7044165700610415	0.9520887418184	0.235513306049507	0.7959245482330523	1.3186366950825215	0.22357276658188807	0.696444127610009	1.3734582683417484	0.2745259848601678	0.7012718116899798	1.3750617843994597	0.2086440610219868	0.8827061463355923	1.38593380503215	0.12476206001427691	0.6172560836623434	0.5516699759926376	0.10341018290357476	0.7093241767498959	0.9474662045332412	0.03791836365449894	0.8174832728493238	1.3348662986774378	0.06202634939047719	0.6416878806076194	1.3338975542921176	0.008184466455872987	0.6789642547155943	1.3390117828331176	0.0436871156012779	0.8632517025962125	1.37548798311174	0.2620519312753016	0.5694497145664231	0.006431750249450348	0.3083176123609881	0.456692330446587	-0.24015133516622214	0.2845314178003092	0.42033691101734916	-0.08627594102399806	0.4296004810805762	0.6126931262308715	0.09839604839041965	0.45267536238512157	0.6267016289781354	0.37348811402118687	0.4363015179747021	0.6058392765410703	0.6087165983480334	0.38729232280851206	0.5482361592413835	0.688705541556837	0.40342625982482394	0.5489499958194948	0.7005022274103977	0.4184118184115782	0.5825339578315024	0.7067304713817901	0.0851239250439455	0.6059197595547432	0.06402225784327252	0.016692498924448382	0.5839341334575094	0.31395162435932605	-0.0031847414118656436	0.5675112765550804	0.5639376354595099	0.03494204661347037	0.5868038440565354	0.6589382775897863	0.009743979452155414	0.5785873871173867	0.7108208099177352	-0.013658485207939062	0.551384917785593	0.6717670360497998
544	9.379310344827585	0.33292584920320745	0.621408753477228	0.5788629948110876	0.252281482781727	0.7035939355197195	0.9475370633211311	0.23550036098564592	0.7959101427329873	1.318624893894205	0.22358380059704566	0.6968807113758556	1.3732643539824367	0.26961663324464613	0.6978497698566871	1.3685902069656402	0.2086193465194844	0.8825301018764611	1.3858120062292232	0.12478184652195215	0.6172249738481125	0.5516293822587597	0.10329008321109405	0.709576370258143	0.947535652920944	0.03792262719792934	0.817528437031147	1.3348489126381504	0.06203436425098391	0.641688838160126	1.3339652456440958	0.008125602248298648	0.6789928747783296	1.3390182254670504	0.04373081961765633	0.8630250864023247	1.3753749508184907	0.2620146453474175	0.5694557645370655	0.006454807861672204	0.3083188414609625	0.4565736296455183	-0.24016631994726081	0.284444178516739	0.4201356194673129	-0.08633337383653225	0.4295647264863969	0.6127755581947375	0.09841960093638348	0.45254734416043685	0.6269076855426046	0.37349570048550806	0.4362648720267598	0.6057875742920329	0.6086757613917967	0.38742812475598915	0.5473996170041576	0.6920202299597689	0.40347954883192216	0.5489224386225868	0.7005281471228902	0.4185197887676493	0.5827350949474421	0.7067850031409013	0.08512427055774467	0.6059031870160404	0.06397601739860692	0.01671063709777984	0.5840317115145447	0.31395614549926276	0.0005595847730164037	0.569819263013493	0.5646174065546489	0.03515370894115896	0.5891389036081294	0.6641561262007043	0.011832257406588692	0.5910362940276529	0.7143711022452129	-0.01346956731890284	0.5530756416194155	0.6758963889766205
545	9.39655172413793	0.33328995325825794	0.6232182226544282	0.5829151512249433	0.2523148540593926	0.7037339244454398	0.947350545238787	0.23550594361349594	0.7958018286307834	1.3185755020747023	0.2236615868407154	0.696684322328616	1.3731628916352585	0.2750376595914969	0.6818094809989882	1.3608491714469266	0.20724669710365592	0.8832962885839631	1.391207327375567	0.12474515239199063	0.6173897267335691	0.5516664449721176	0.10322378256734739	0.7096168397921958	0.9474487193637279	0.03648176389637525	0.818623251708627	1.3396675619538059	0.06198348192120519	0.6418304995669293	1.3340730153114297	0.013023991578126571	0.6654298153601067	1.336072749247714	0.04380706149469864	0.8631785572774011	1.375394733621796	0.2619670121928383	0.5695137317152017	0.0065280677906115235	0.3082899534763136	0.45654653169119114	-0.240162334794757	0.2817012586120865	0.4095645444057665	-0.08638504279678123	0.42956442170514364	0.6128490647447684	0.09842569519400149	0.45310240640909194	0.6266473877610728	0.36995288515563496	0.43621231817335904	0.6056987209296029	0.6085409554740139	0.3873356356816507	0.5482323090784268	0.6887097995915266	0.4035001126686995	0.5489323311499983	0.7005634861063168	0.4185258574958859	0.5831624477267228	0.7068199906903423	0.08507066124472885	0.6060442215598603	0.06397151644790826	0.016714808182446916	0.5841160153980304	0.3140197077555023	0.0006073492650415446	0.5698924807286875	0.5646558247723177	0.034261397809508744	0.5894578979246531	0.6676804497978712	0.011824435282188487	0.5909113724273531	0.7143037496852526	-0.013463552263412292	0.5530906769138251	0.6758555460341998
546	9.413793103448276	0.3284270514426676	0.635803710770475	0.5819160067989273	0.2522547186115198	0.703661505620721	0.9475288343393284	0.23558559694027775	0.7960421705909334	1.318668418938217	0.22358231893358904	0.6963981509331505	1.3734139327849155	0.27918383363388993	0.6832357127974898	1.3617311672265215	0.20875034004009818	0.8829105201245869	1.3860260070530621	0.12081925233220418	0.6153385041346277	0.5511637415195543	0.09724076793451782	0.724321655312583	0.9526293662023301	0.036503279676434075	0.818687652999461	1.3396444753023964	0.06042998273386634	0.6281019700624041	1.3276502942370694	0.008166594876736434	0.6786431573861923	1.3388893486294462	0.04381916849007685	0.863272396713257	1.3753812556123954	0.26190010142952924	0.5694492111074871	0.006447622906159543	0.30826721554187136	0.45642852764599673	-0.2401733944383136	0.2815531338966155	0.40835815318349544	-0.0894431442523595	0.42952317365663273	0.6129029599229736	0.0984046818337785	0.4530670528390259	0.6267219560357038	0.36988558583400016	0.4327170566792955	0.5940666264127328	0.6057024063842564	0.38725425171283223	0.5481878476649563	0.6887257836098161	0.40347630818249675	0.5488275549706914	0.7006176495721934	0.41853830037966944	0.5832945689118642	0.7068137766613936	0.08499575026267533	0.6061153232182713	0.06015352597265992	0.01671879248142266	0.5839626043216428	0.3139633888518848	0.0006206019999421687	0.5698608105693509	0.5645191351625428	0.033842319015244315	0.590141618826725	0.664210588877793	0.011696525600261869	0.5909585639869214	0.7143023807733448	-0.01351405490737593	0.5530429171573916	0.6757408148055832
547	9.431034482758621	0.3253922014371657	0.6233592606223793	0.5791456375468046	0.24722576844134464	0.7188089349428399	0.9526173813210829	0.2367950325098159	0.7951219248523903	1.3139902849985983	0.22349004073511738	0.6965177773467329	1.3736519716182778	0.27441032520686104	0.7012394688215075	1.3751261377635025	0.20869458609378952	0.8827476434623057	1.3859780305685199	0.12080628037148704	0.6153103270160607	0.5511717607657011	0.10096483453193301	0.6952296793695766	0.9430378990849836	0.036488505718507015	0.8187564811227619	1.3396847570147554	0.06036778844758567	0.6280237668650757	1.3276264184432163	0.008119648629021864	0.6788713759998856	1.339027445113851	0.04378550216840327	0.8629410188207652	1.375266717055968	0.2618591281076365	0.5693925663438363	0.006417810290929404	0.3082365615622239	0.4564603399857937	-0.24014441398185918	0.2788452563377327	0.39782009155406106	-0.08952633601301785	0.42557089189475866	0.62698333876198	0.09919727468505904	0.449101231994596	0.6405944928971067	0.3718295664175958	0.4326845367894235	0.5940557587267667	0.6057139090819342	0.3872655692353389	0.5480012614221083	0.6886627224670528	0.4034714742016593	0.5486487305229176	0.7005078350670433	0.41813982819580625	0.5831496994270309	0.7026175103656176	0.08497705748702625	0.6060927287312303	0.06017963998762265	0.017360371580339255	0.5836120384065432	0.31032643431417356	0.0014573978994605497	0.5693948660618473	0.5603759455790648	0.03440727835554774	0.5873989500255317	0.6552937549407405	0.005630066389001651	0.5736794738700329	0.7055921764897769	-0.015617437694076489	0.5389860289018907	0.6681702384804231
